<svg width="1024" height="1024" viewBox="0 0 1024 1024" fill="none" xmlns="http://www.w3.org/2000/svg">
<g clip-path="url(#clip0_901_565)">
<path d="M712.714 461.824C682.695 469.324 651.15 457.159 634.074 431.36C607.886 391.803 562.992 365.71 512 365.71C461.009 365.71 416.114 391.794 389.926 431.36C372.85 457.159 341.305 469.324 311.287 461.824C262.353 449.593 240.1 392.609 267.975 350.568C320.351 271.54 410.093 219.439 512.01 219.439C613.926 219.439 703.668 271.55 756.044 350.568C783.901 392.609 761.657 449.593 712.714 461.824Z" fill="#20D3C4"/>
<path d="M1024 512C1024 552.391 991.251 585.14 950.86 585.14C910.459 585.14 877.71 552.391 877.71 512C877.71 310.025 713.974 146.29 512 146.29C310.025 146.29 146.29 310.025 146.29 512C146.29 471.609 113.541 438.86 73.1401 438.86C32.749 438.86 0 471.609 0 512C0 229.234 229.234 0 512 0C794.766 0 1024 229.234 1024 512Z" fill="url(#paint0_linear_901_565)"/>
<path fill-rule="evenodd" clip-rule="evenodd" d="M512 1024C794.766 1024 1024 794.766 1024 512C1024 552.391 991.251 585.14 950.86 585.14C910.459 585.14 877.71 552.391 877.71 512C877.71 595.067 850.015 671.666 803.354 733.067C799.539 726.729 795.212 720.632 790.407 714.837C788.553 701.924 775.49 673.52 722.261 663.391C730.34 646.002 743.784 622.516 763.126 605.668L742.362 590.402C742.362 590.402 721.048 615.889 710.03 660.603H710.021C710.021 660.603 658.859 656.299 638.682 636.407C620.217 618.202 621.875 638.987 641.183 658.582C589.642 666.471 545.866 699.652 530.303 748.793C529.466 751.436 528.722 754.089 528.07 756.748C505.181 736.501 473.721 719.131 435.759 704.171C375.774 680.533 343.408 637.2 326.635 604.106C328.348 604.571 330.145 605.161 331.932 605.748C336.603 607.281 341.209 608.792 344.073 608.01C351.188 606.073 341.792 596.798 329.693 584.853L329.693 584.853L329.689 584.849C326.858 582.054 323.879 579.113 320.929 576.085C307.561 562.367 277.207 556.25 260.787 566.597C250.621 519.218 226.712 492.449 226.712 492.449L208.469 506.785C233.697 527.375 248.752 560.174 253.959 573.028L253.914 573.049C252.75 573.003 233.893 572.814 219.591 607.213C210.808 628.338 204.002 634.214 200.265 637.44C197.72 639.637 196.598 640.606 197.243 644.324C198.267 650.221 211.812 647.056 223.376 639.596C223.097 670.908 225.905 711.086 237.122 753.224C180.576 688.84 146.29 604.423 146.29 512C146.29 471.609 113.541 438.86 73.1401 438.86C32.749 438.86 0 471.609 0 512C0 794.766 229.234 1024 512 1024ZM372.233 475.847L358.352 476.606C358.352 476.606 358.163 497.71 371.903 522.745C370.233 523.65 368.526 524.678 366.781 525.834C366.781 525.834 334.175 545.479 370.451 623.398C373.077 629.03 376.557 636.018 380.89 643.84C396.696 659.617 417.138 674.219 443.468 684.601C464.801 693.001 483.66 701.914 500.176 711.415C506.529 715.055 512.55 718.791 518.22 722.631C520.552 717.824 523.16 713.169 526.013 708.674L526.01 708.671L526.014 708.665C542.341 682.875 566.585 662.462 595.778 649.851C601.666 647.301 605.26 641.242 604.757 634.861C604.425 630.737 604.938 626.593 606.606 622.592C610.228 613.945 618.629 608.36 628.034 608.36C638.805 608.36 647.263 615.339 653.435 621.426C655.36 623.322 658.024 625.105 661.191 626.754C664.642 628.556 668.596 628.679 672.417 627.883C672.939 627.769 673.517 627.807 674.114 628.053L695.182 636.444L695.798 636.691C696.851 637.118 698.046 636.871 698.88 636.094C701.848 633.287 704.759 630.519 707.584 627.826C721.939 614.135 729.041 595.911 729.041 577.726C729.041 576.37 729.003 575.023 728.927 573.658C728.567 567.473 727.383 561.333 725.382 555.417C739.263 548.706 755.175 539.983 756.688 534.632C758.625 527.756 738.188 535.167 727.079 539.195C722.579 540.827 719.61 541.904 720.28 541.25C720.696 540.844 723.043 539.23 726.581 536.796L726.586 536.792L726.587 536.791C742.803 525.636 784.006 497.29 779.065 489.197C774.792 482.197 740.324 503.197 730.03 509.469C728.013 510.698 726.924 511.361 727.173 511.137C727.173 511.137 775.898 459.34 764.843 450.152C753.787 440.965 711.794 498.356 711.794 498.356C711.62 498.641 712.069 497.46 712.901 495.27L712.902 495.269C717.17 484.036 731.528 446.253 723.864 443.326C715.01 439.949 694.691 485.626 686.688 503.616C684.938 507.551 683.777 510.161 683.453 510.644C682.934 511.421 683.449 508.302 684.229 503.578C686.154 491.918 689.696 470.473 683.292 473.638C678.224 476.143 672.461 493.902 668.394 508.936C655.199 507.297 641.734 509.488 629.732 515.252C628.158 515.992 627.589 517.954 628.518 519.424L634.283 528.64C636.037 531.437 632.5 534.528 629.969 532.414L619.766 523.947C618.686 523.055 617.131 523.055 616.05 523.937C610.626 528.337 605.762 533.646 601.714 539.857C597.457 546.37 593.038 553.216 588.487 560.318C584.249 566.936 579.906 573.772 575.497 580.769C574.9 581.708 574.9 582.912 575.488 583.86L590.952 608.559C592.706 611.357 589.16 614.447 586.629 612.333L568.87 597.589C567.514 596.461 565.476 596.783 564.546 598.291C556.686 610.977 548.779 624.005 541.08 637.023C540.53 637.962 540.539 639.128 541.118 640.057L549.841 653.985C551.595 656.782 548.058 659.873 545.517 657.759L537.022 650.686C535.628 649.538 533.532 649.908 532.641 651.473C524.896 664.887 517.464 678.168 510.695 690.928C507.483 687.185 504.195 683.3 500.84 679.282C480.012 654.311 465.039 622.225 451.504 593.217C429.268 545.564 410.909 506.22 376.835 520.378C373.863 510.949 369.392 492.823 372.233 475.847Z" fill="url(#paint1_linear_901_565)"/>
<g clip-path="url(#clip1_901_565)">
<path d="M544.147 431.922C536.286 431.922 529.08 434.413 522.727 439.326C516.637 444.036 512.583 450.035 510.195 454.397C507.808 450.035 503.754 444.036 497.664 439.326C491.311 434.413 484.105 431.922 476.244 431.922C454.308 431.922 437.766 449.865 437.766 473.658C437.766 499.364 458.404 516.951 489.646 543.575C494.952 548.096 500.965 553.221 507.216 558.687C508.04 559.409 509.098 559.806 510.195 559.806C511.293 559.806 512.351 559.409 513.175 558.688C519.426 553.221 525.44 548.096 530.748 543.572C561.987 516.951 582.625 499.364 582.625 473.658C582.625 449.865 566.083 431.922 544.147 431.922Z" fill="#20D3C4"/>
</g>
</g>
<defs>
<linearGradient id="paint0_linear_901_565" x1="-6.65194" y1="585.14" x2="511.877" y2="585.14" gradientUnits="userSpaceOnUse">
<stop stop-color="#20D3C4" stop-opacity="0"/>
<stop offset="1" stop-color="#20D3C4"/>
</linearGradient>
<linearGradient id="paint1_linear_901_565" x1="985.98" y1="509.465" x2="512" y2="509.465" gradientUnits="userSpaceOnUse">
<stop stop-color="#20D3C4" stop-opacity="0"/>
<stop offset="1" stop-color="#20D3C4"/>
</linearGradient>
<clipPath id="clip0_901_565">
<rect width="1024" height="1024" fill="white"/>
</clipPath>
<clipPath id="clip1_901_565">
<rect width="144.859" height="144.859" fill="white" transform="translate(437.766 423.435)"/>
</clipPath>
</defs>
</svg>
